<svg width="1192" height="706" viewBox="0 0 1192 706" fill="none" xmlns="http://www.w3.org/2000/svg">
<rect width="1192" height="706" fill="#D9D9D9"/>
<path d="M489 228L702 441" stroke="black" stroke-width="9" stroke-linecap="round" stroke-linejoin="round"/>
<path d="M682.636 421.782H508.364C503.228 421.782 498.303 419.739 494.671 416.101C491.04 412.464 489 407.53 489 402.386V295.708C489 290.564 491.04 285.631 494.671 281.993C498.303 278.356 503.228 276.312 508.364 276.312H537.409M566.455 247.218H624.545L643.909 276.312H682.636C687.772 276.312 692.697 278.356 696.329 281.993C699.96 285.631 702 290.564 702 295.708V386.288M627.256 366.31C624.043 371.014 619.834 374.951 614.929 377.84C610.025 380.73 604.544 382.502 598.878 383.029C593.213 383.556 587.5 382.827 582.148 380.891C576.795 378.956 571.935 375.864 567.911 371.833C563.887 367.803 560.8 362.934 558.868 357.573C556.936 352.211 556.208 346.49 556.734 340.814C557.261 335.139 559.029 329.649 561.914 324.736C564.799 319.823 568.729 315.608 573.425 312.389" stroke="black" stroke-width="9" stroke-linecap="round" stroke-linejoin="round"/>
</svg>
