<svg width="1440" height="1025" viewBox="0 0 1440 1025" fill="none" xmlns="http://www.w3.org/2000/svg">
<rect width="1440" height="1024" fill="#002233"/>
<path d="M0 744C22.9365 761.433 45.8191 778.867 70.4286 790.736C95.0381 802.531 121.321 808.837 142.368 828.718C163.362 848.674 179.067 882.205 188.457 917.072C197.848 952.013 200.924 988.215 204 1024.42H0V744Z" fill="#60B776" fill-opacity="0.81"/>
<path d="M0 819.234C9.11176 831.673 18.2021 844.112 27.9785 852.581C37.7549 860.996 48.1959 865.496 56.5573 879.681C64.8972 893.919 71.1361 917.844 74.8665 942.721C78.597 967.651 79.819 993.481 81.0411 1019.31H0V819.234Z" fill="#60B776" fill-opacity="0.81"/>
<path d="M1440 363C1396.48 358.102 1352.87 353.109 1318.35 331.79C1283.75 310.471 1258.25 272.826 1227.82 239.695C1197.39 206.564 1162.11 178.139 1143.15 138.958C1124.11 99.777 1121.39 49.8405 1118.67 0H1440V363Z" fill="#60B776"/>
</svg>
