<svg width="1440" height="2539" viewBox="0 0 1440 2539" fill="none" xmlns="http://www.w3.org/2000/svg">
<rect width="1440" height="2539" fill="#002233"/>
<path fill-rule="evenodd" clip-rule="evenodd" d="M0.408064 837.31C0.272048 837.207 0.13603 837.103 1.03712e-05 837V1117.42H204L204 1117.42C200.924 1081.21 197.848 1045.01 188.457 1010.07C179.067 975.205 163.362 941.674 142.368 921.718C127.257 907.444 109.447 900.168 91.4953 892.834C84.4433 889.953 77.3694 887.063 70.4286 883.736C45.965 871.937 23.208 854.64 0.408064 837.31ZM203.774 1118.06L204 1117.42H0V1439.55H0.000475764C26.3368 1434.69 52.6732 1429.83 78.0921 1415.01C103.457 1400.18 127.851 1375.38 142.368 1342.23C152.753 1318.37 158.046 1290.24 163.381 1261.89C165.477 1250.76 167.58 1239.59 170 1228.63C178.584 1190 191.167 1154.06 203.774 1118.06Z" fill="#60B776" fill-opacity="0.81"/>
<path fill-rule="evenodd" clip-rule="evenodd" d="M0.162073 912.456C0.10805 912.382 0.0540251 912.308 0 912.234V1112.31H81.0411V1112.31C79.819 1086.48 78.597 1060.65 74.8665 1035.72C71.1361 1010.84 64.8972 986.919 56.5573 972.681C50.5541 962.496 43.479 957.305 36.3475 952.072C33.546 950.016 30.7358 947.954 27.9785 945.581C18.2601 937.162 9.21958 924.82 0.162073 912.456ZM80.8958 1112.7L80.9854 1112.31H0.000204027V1306.98C10.4554 1304.05 20.9107 1301.11 31.0017 1292.15C41.0712 1283.19 50.7552 1268.2 56.5184 1248.17C60.6408 1233.75 62.7422 1216.75 64.8603 1199.62C65.6924 1192.89 66.5271 1186.14 67.4878 1179.52C70.8954 1156.17 75.8909 1134.46 80.8958 1112.7Z" fill="#60B776" fill-opacity="0.81"/>
<path fill-rule="evenodd" clip-rule="evenodd" d="M1439.5 1603.29L1440 1603V1866.06L1440 2168.26C1407.47 2163.7 1374.93 2159.15 1343.53 2145.24C1312.2 2131.33 1282.07 2108.06 1264.13 2076.96C1251.31 2054.58 1244.77 2028.19 1238.18 2001.6C1235.59 1991.15 1232.99 1980.68 1230 1970.39C1219.4 1934.15 1203.85 1900.44 1188.28 1866.67L1188 1866.06C1191.8 1832.1 1195.6 1798.14 1207.2 1765.36C1218.8 1732.65 1238.2 1701.2 1264.13 1682.48C1282.8 1669.09 1304.8 1662.26 1326.98 1655.38C1335.69 1652.68 1344.43 1649.96 1353 1646.84C1383.22 1635.77 1411.33 1619.55 1439.5 1603.29Z" fill="#60B776" fill-opacity="0.81"/>
<path fill-rule="evenodd" clip-rule="evenodd" d="M1303.45 1865.7L1303.3 1866.06L1303.45 1866.43C1311.9 1886.84 1320.33 1907.21 1326.08 1929.11C1327.7 1935.32 1329.11 1941.66 1330.52 1947.97C1334.09 1964.04 1337.64 1979.98 1344.6 1993.51C1354.33 2012.31 1370.67 2026.36 1387.67 2034.77C1404.7 2043.18 1422.35 2045.93 1440 2048.68V1866.06V1683.44L1440 1683.44C1422.35 1686.19 1404.7 1688.95 1387.67 1697.35C1370.67 1705.76 1354.33 1719.82 1344.6 1738.61C1337.64 1752.14 1334.09 1768.08 1330.52 1784.15C1329.11 1790.47 1327.7 1796.8 1326.08 1803.01C1320.33 1824.91 1311.9 1845.29 1303.45 1865.7Z" fill="#60B776" fill-opacity="0.81"/>
<path d="M1440 324C1402.62 319.629 1365.16 315.171 1335.51 296.143C1305.8 277.114 1283.89 243.514 1257.75 213.943C1231.61 184.371 1201.31 159 1185.03 124.029C1168.67 89.0571 1166.34 44.4857 1164 0H1440V324Z" fill="#60B776"/>
<path fill-rule="evenodd" clip-rule="evenodd" d="M0.162073 912.456C0.10805 912.382 0.0540251 912.308 0 912.234V1112.31H81.0411V1112.31C79.819 1086.48 78.597 1060.65 74.8665 1035.72C71.1361 1010.84 64.8972 986.919 56.5573 972.681C50.5541 962.496 43.479 957.305 36.3475 952.072C33.546 950.016 30.7358 947.954 27.9785 945.581C18.2601 937.162 9.21958 924.82 0.162073 912.456ZM80.8958 1112.7L80.9854 1112.31H0.000204027V1306.98C10.4554 1304.05 20.9107 1301.11 31.0017 1292.15C41.0712 1283.19 50.7552 1268.2 56.5184 1248.17C60.6408 1233.75 62.7422 1216.75 64.8603 1199.62C65.6924 1192.89 66.5271 1186.14 67.4878 1179.52C70.8954 1156.17 75.8909 1134.46 80.8958 1112.7Z" fill="#60B776" fill-opacity="0.81"/>
<path d="M0 2223C33.7712 2242.65 67.4628 2262.29 103.697 2275.67C139.932 2288.96 178.63 2296.06 209.62 2318.47C240.53 2340.96 263.653 2378.74 277.48 2418.03C291.306 2457.41 295.835 2498.2 300.365 2539H0V2223Z" fill="#60B776"/>
</svg>
