<?xml version="1.0" encoding="UTF-8"?>
<svg id="Calque_1" xmlns="http://www.w3.org/2000/svg" viewBox="0 0 315 83.33">
  <defs>
    <style>
      .cls-1 {
        font-family: ArialRoundedMTBold, 'Arial Rounded MT Bold';
        font-size: 14.74px;
      }

      .cls-1, .cls-2, .cls-3 {
        fill: #fff;
      }

      .cls-3 {
        font-family: MochiyPopOne-Regular, 'Mochiy Pop One';
        font-size: 23.48px;
      }
    </style>
  </defs>
  <g>
    <path class="cls-2" d="M0,78.15c0-9.17.13-17.45.4-24.83.26-7.38.62-14.11,1.06-20.2.44-6.09.94-11.76,1.5-17.02.56-5.26,1.1-10.3,1.63-15.13l15.17.62c-.24,1.82-.5,3.79-.79,5.91,2,2.71,4.19,5.79,6.57,9.26,2.38,3.47,4.82,7.13,7.32,10.98,2.5,3.85,4.95,7.7,7.37,11.56,2.41,3.85,4.7,7.53,6.88,11.03,2.17,3.5,4.09,6.63,5.73,9.39.41-4.06.62-9.76.62-17.11,0-3.76-.06-7.64-.18-11.64-.12-4-.26-7.83-.44-11.51-.18-3.67-.41-6.97-.71-9.88-.29-2.91-.62-5.19-.97-6.84l16.58-2.03c.12,2.88.19,6.66.22,11.33.03,4.67.04,9.63.04,14.86,0,4.65-.03,9.31-.09,13.98s-.18,8.98-.35,12.92-.44,7.2-.79,9.79c-.65,5.06-1.94,8.79-3.88,11.2s-4.67,3.62-8.2,3.62c-2.88,0-5.51-1-7.89-3-2.38-2-4.95-5.29-7.72-9.88-1.88-3.17-4.07-6.84-6.57-10.98-2.5-4.15-5.09-8.39-7.76-12.75-2.68-4.35-5.25-8.5-7.72-12.44-.47,6.88-.82,13.75-1.06,20.6-.24,6.85-.35,13.04-.35,18.57v4.98c0,1.56.03,3.01.09,4.37l-15.7.26Z"/>
    <path class="cls-2" d="M105.23,78.77c-5.65,0-10.6-1.1-14.86-3.31s-7.58-5.28-9.97-9.22c-2.38-3.94-3.57-8.5-3.57-13.67,0-3.12.53-6.39,1.59-9.83,1.06-3.44,2.76-6.66,5.12-9.66,2.35-3,5.45-5.44,9.31-7.32,3.85-1.88,8.54-2.82,14.07-2.82,4,0,7.37.44,10.1,1.32,2.73.88,4.97,2.03,6.7,3.44s3.06,2.91,3.97,4.5c.91,1.59,1.53,3.1,1.85,4.54.32,1.44.48,2.63.48,3.57,0,5.71-2.4,10.1-7.19,13.19-4.79,3.09-11.57,4.63-20.33,4.63-2,0-3.9-.09-5.69-.26-1.79-.18-3.46-.38-4.98-.62,1.12,2.94,2.97,5.1,5.56,6.48,2.59,1.38,5.26,2.07,8.03,2.07,4,0,7.53-.72,10.58-2.16,3.06-1.44,5.94-3.66,8.64-6.66l7.85,11.29c-1.88,1.53-3.98,3.12-6.31,4.76-2.32,1.65-5.16,3.01-8.51,4.1-3.35,1.09-7.5,1.63-12.44,1.63ZM107.17,36.16c-3.47,0-6.53.88-9.17,2.65-2.65,1.76-4.59,4.09-5.82,6.97,1.47.24,2.92.43,4.37.57,1.44.15,2.87.22,4.28.22,1.29,0,2.78-.12,4.45-.35,1.68-.23,3.32-.59,4.94-1.06,1.62-.47,2.96-1.07,4.01-1.81,1.06-.73,1.59-1.6,1.59-2.6,0-.47-.24-1.06-.71-1.76-.47-.71-1.32-1.35-2.56-1.94-1.24-.59-3.03-.88-5.38-.88Z"/>
    <path class="cls-2" d="M158.86,78.94c-4.88,0-9.03-3.79-12.44-11.38-1.18-2.7-2.21-5.67-3.09-8.91-.88-3.23-1.63-6.53-2.25-9.88s-1.12-6.57-1.5-9.66c-.38-3.09-.68-5.82-.88-8.2s-.37-4.19-.48-5.42l14.46-3.35c.71,13.35,1.78,23.49,3.22,30.43,1.44,6.94,2.54,10.41,3.31,10.41.41,0,.93-.82,1.54-2.47.62-1.65,1.31-3.84,2.07-6.57.76-2.73,1.5-5.75,2.21-9.04.71-3.29,1.32-6.62,1.85-9.97-.71-4.29-1.18-7.7-1.41-10.23l14.91-.53v1.06c0,2.41.18,5.23.53,8.47.35,3.23.79,6.57,1.32,10.01.53,3.44,1.1,6.63,1.72,9.57.62,2.94,1.22,5.32,1.81,7.14.59,1.82,1.09,2.73,1.5,2.73.35,0,.85-.79,1.5-2.38.65-1.59,1.37-3.76,2.16-6.53.79-2.76,1.6-5.92,2.43-9.48.82-3.56,1.62-7.32,2.38-11.29.76-3.97,1.38-7.92,1.85-11.86l14.55,3.09c-1,5.59-2.19,11.13-3.57,16.63-1.38,5.5-2.84,10.58-4.37,15.26-1.53,4.67-3.03,8.6-4.5,11.78-3.29,7-7.38,10.5-12.26,10.5-1.59,0-3.4-.49-5.42-1.46-2.03-.97-3.9-2.99-5.6-6.04-.59-1.12-1.18-2.47-1.76-4.06-.59-1.59-1.15-3.35-1.68-5.29-.71,2.18-1.41,4.12-2.12,5.82-3.12,7.41-7.12,11.11-12,11.11Z"/>
    <path class="cls-2" d="M226.6,77.62c-.06-1.88-.09-3.78-.09-5.69v-5.69c0-8.64.18-17.04.53-25.18.35-8.14.76-15.92,1.24-23.33-2.35.59-4.32,1.15-5.91,1.68l-3.44-14.11c2.88-.88,5.92-1.66,9.13-2.34,3.2-.68,6.35-1.24,9.44-1.68,3.09-.44,5.94-.76,8.56-.97,2.62-.21,4.78-.31,6.48-.31,1.82,0,4.07.15,6.75.44,2.67.29,5.44.9,8.29,1.81,2.85.91,5.51,2.28,7.98,4.1,2.47,1.82,4.48,4.28,6.04,7.37,1.56,3.09,2.34,6.95,2.34,11.6s-1.06,8.84-3.18,12.04c-2.12,3.21-4.91,5.76-8.38,7.67-3.47,1.91-7.29,3.28-11.47,4.1-4.18.82-8.29,1.24-12.35,1.24-2.59,0-5.06-.12-7.41-.35-.06,2.82-.09,5.62-.09,8.38,0,3.76.03,7.25.09,10.45.06,3.2.18,6.01.35,8.42l-14.91.35ZM252.09,14.47c-1.53,0-3.1.06-4.72.18-1.62.12-3.22.26-4.81.44-.29,3.12-.53,6.5-.71,10.14-.18,3.65-.32,7.38-.44,11.2,2.17.18,4.44.26,6.79.26,14.11,0,21.17-4.17,21.17-12.53,0-3.29-1.41-5.73-4.23-7.32-2.82-1.59-7.17-2.38-13.05-2.38Z"/>
  </g>
  <g>
    <rect class="cls-2" x="278.24" y="35.48" width="4.78" height="27.68" rx="2.26" ry="2.26" transform="translate(53.34 221.15) rotate(-47.06)"/>
    <rect class="cls-2" x="267.45" y="40.01" width="3.42" height="27.4" rx="1.71" ry="1.71" transform="translate(16.63 -53.81) rotate(11.78)"/>
    <rect class="cls-2" x="282.71" y="27.48" width="3.42" height="27.4" rx="1.71" ry="1.71" transform="translate(325.6 -243.24) rotate(90)"/>
    <rect class="cls-2" x="287.93" y="56.09" width="3.42" height="27.4" rx="1.71" ry="1.71" transform="translate(-7.52 48.36) rotate(-9.42)"/>
    <rect class="cls-2" x="299.64" y="43.59" width="3.42" height="27.4" rx="1.71" ry="1.71" transform="translate(217.38 352.32) rotate(-84.88)"/>
    <text class="cls-3" transform="translate(249.16 27) rotate(-39.43)"><tspan x="0" y="0">..</tspan></text>
    <text class="cls-1" transform="translate(264.49 26.98) rotate(-132.51)"><tspan x="0" y="0">(</tspan></text>
  </g>
</svg>