<svg width="148" height="173" viewBox="0 0 148 173" fill="none" xmlns="http://www.w3.org/2000/svg">
<path d="M63.553 77.8567C63.553 89.2884 63.5273 100.72 63.5616 112.152C63.5873 119.361 67.8184 124.073 74.1437 124.056C80.4259 124.047 84.6914 119.301 84.7086 112.092C84.7515 89.2283 84.7515 66.3649 84.7257 43.4928C84.7171 36.3523 80.4088 31.5548 74.1179 31.4604C67.7841 31.3659 63.5702 36.1549 63.553 43.5529C63.5273 54.9846 63.553 66.4164 63.553 77.8481V77.8567Z" fill="#FDFDFC"/>
<path d="M64.3168 172.057C64.3168 172.057 58.4121 170.992 52.2157 168.529C27.7473 158.788 15.732 143.125 15.732 143.125C3.69092 127.334 -1.67306 106.728 2.13751 85.5034C4.71223 71.1708 11.1748 58.9152 20.6068 48.0757C25.1812 42.8061 32.2531 42.1882 36.9219 46.4364C41.625 50.7105 41.0843 57.1987 36.1323 62.6914C21.8598 78.5088 17.8347 96.815 25.1211 116.778C32.0986 135.891 46.3882 147.296 66.4967 150.352C86.9228 153.459 103.727 146.026 116.051 129.737C128.29 113.568 129.448 95.5705 121.87 77.0154C119.604 71.4626 115.966 66.6479 111.837 62.2194C106.782 56.7954 106.825 50.8649 111.691 46.4021C116.086 42.3684 122.608 43.0121 127.217 48.11C146.562 69.5059 151.84 94.1029 143.729 121.67C139.352 136.534 129.817 147.631 118.051 157.235C118.051 157.235 105.203 167.139 88.7251 171.19C86.4164 171.756 82.2282 172.76 76.5982 172.966C74.6757 173.035 70.0927 173.104 64.3082 172.065L64.3168 172.057Z" fill="#ED811C"/>
<path d="M63.5444 77.8559C63.5444 66.4242 63.5187 54.9925 63.5444 43.5607C63.5616 36.1627 67.7755 31.3738 74.1093 31.4682C80.4002 31.5626 84.7085 36.3601 84.7171 43.5007C84.7514 66.3641 84.7429 89.2275 84.7 112.1C84.6828 119.309 80.4174 124.055 74.1351 124.063C67.8098 124.072 63.5787 119.369 63.553 112.16C63.5187 100.728 63.5444 89.2962 63.5358 77.8645L63.5444 77.8559Z" fill="#090909"/>
<path d="M74.1693 23.2814C80.4829 23.2814 85.6011 18.1633 85.6011 11.8497C85.6011 5.53612 80.4829 0.417969 74.1693 0.417969C67.8558 0.417969 62.7376 5.53612 62.7376 11.8497C62.7376 18.1633 67.8558 23.2814 74.1693 23.2814Z" fill="#ED811C"/>
</svg>
